<svg xmlns="http://www.w3.org/2000/svg" width="17" height="20" viewBox="0 0 17 20" xmlns:xlink="http://www.w3.org/1999/xlink">
  <defs>
    <polygon id="a" points=".006 .026 10.96 .026 10.96 6.193 .006 6.193 .006 .026"/>
  </defs>
  <g fill="none" fill-rule="evenodd">
    <path fill="#FEFEFE" d="M1.24129594 14.0690623L1.24129594 14.0690623C.555738878 14.0690623 0 13.5149311 0 12.8313574L0 7.68381639C0 7.00024262.555738878 6.44611148 1.24129594 6.44611148 1.926853 6.44611148 2.48259188 7.00024262 2.48259188 7.68381639L2.48259188 12.8313574C2.48259188 13.5149311 1.926853 14.0690623 1.24129594 14.0690623M15.7587041 14.0690623L15.7587041 14.0690623C15.073147 14.0690623 14.5174081 13.5149311 14.5174081 12.8313574L14.5174081 7.68381639C14.5174081 7.00024262 15.073147 6.44611148 15.7587041 6.44611148 16.4442611 6.44611148 17 7.00024262 17 7.68381639L17 12.8313574C17 13.5149311 16.4442611 14.0690623 15.7587041 14.0690623M13.8737033 6.69201311L3.07696054 6.69201311C3.021094 6.69201311 2.97581547 6.73716066 2.97581547 6.79286557L2.97581547 14.7202426C2.97581547 15.4289639 3.55200696 16.0034885 4.26278453 16.0034885L5.11314623 16.0034885 5.11314623 18.7364721C5.11314623 19.4200459 5.66891799 19.974177 6.35444217 19.974177 7.03999923 19.974177 7.5957381 19.4200459 7.5957381 18.7364721L7.5957381 16.0034885 9.35492573 16.0034885 9.35492573 18.7364721C9.35492573 19.4200459 9.91069749 19.974177 10.5962217 19.974177 11.2817787 19.974177 11.8375176 19.4200459 11.8375176 18.7364721L11.8375176 16.0034885 12.6878793 16.0034885C13.3986569 16.0034885 13.9748484 15.4289639 13.9748484 14.7202426L13.9748484 6.79286557C13.9748484 6.73716066 13.9295698 6.69201311 13.8737033 6.69201311"/>
    <g transform="translate(2.992 .007)">
      <mask id="b" fill="white">
        <use xlink:href="#a"/>
      </mask>
      <path fill="#FEFEFE" d="M8.04787234,4.25060328 C7.80727466,4.25060328 7.61218569,4.05611148 7.61218569,3.81617705 C7.61218569,3.57624262 7.80727466,3.38175082 8.04787234,3.38175082 C8.28847002,3.38175082 8.48355899,3.57624262 8.48355899,3.81617705 C8.48355899,4.05611148 8.28847002,4.25060328 8.04787234,4.25060328 M2.91827853,4.25060328 C2.67768085,4.25060328 2.48259188,4.05611148 2.48259188,3.81617705 C2.48259188,3.57624262 2.67768085,3.38175082 2.91827853,3.38175082 C3.15887621,3.38175082 3.35396518,3.57624262 3.35396518,3.81617705 C3.35396518,4.05611148 3.15887621,4.25060328 2.91827853,4.25060328 M8.14316441,1.87109508 L9.0834913,0.247127869 C9.12436364,0.176570492 9.10012959,0.0863081967 9.0293675,0.0455868852 C8.95857253,0.00483278689 8.86804836,0.0290295082 8.8272089,0.0995868852 L7.87905609,1.7370623 C7.15482979,1.39398033 6.34201934,1.20142295 5.48307544,1.20142295 C4.63945455,1.20142295 3.84029014,1.38719344 3.12586267,1.71886557 L2.18826499,0.0995868852 C2.14742553,0.0290295082 2.05690135,0.00483278689 1.98610638,0.0455868852 C1.91534429,0.0863081967 1.89111025,0.176570492 1.93198259,0.247127869 L2.86053772,1.85083279 C1.28664023,2.68676721 0.17703675,4.25158689 0.00667504836,6.08165246 C0.00111798839,6.14139016 0.0477117988,6.19322623 0.10788588,6.19322623 L10.858265,6.19322623 C10.9184391,6.19322623 10.9650329,6.14139016 10.9594758,6.08165246 C10.7904952,4.26620984 9.6971354,2.71191475 8.14316441,1.87109508" mask="url(#b)"/>
    </g>
  </g>
</svg>
