<svg xmlns="http://www.w3.org/2000/svg" width="17" height="20" viewBox="0 0 17 20">
  <path fill="#FFFFFF" fill-rule="evenodd" d="M8.68439468,5.3427065 C9.0412894,5.3427065 9.62420869,5.20601582 10.43317,4.93263035 C11.2421314,4.65924487 11.9440138,4.52255419 12.5388383,4.52255419 C13.5143506,4.52255419 14.3827814,4.78031377 15.1441568,5.29584066 C15.5724304,5.59265917 15.9967322,5.99492033 16.4170749,6.5026362 C15.7825954,7.03378512 15.3186392,7.50634435 15.0251924,7.92032806 C14.4938159,8.67018535 14.2281316,9.49814036 14.2281316,10.4042179 C14.2281316,11.3962166 14.5096776,12.2905643 15.0727782,13.0872876 C15.6358787,13.884011 16.2782796,14.3878138 17,14.5987112 C16.6986222,15.5594658 16.1989771,16.563166 15.5010497,17.6098418 C14.4462275,19.1798555 13.3993521,19.9648506 12.3603919,19.9648506 C11.9479802,19.9648506 11.3789399,19.8359708 10.653254,19.5782074 C9.9275681,19.3204439 9.31490803,19.1915641 8.81525542,19.1915641 C8.31560282,19.1915641 7.73466625,19.3263021 7.07242827,19.5957821 C6.4101903,19.865262 5.87287353,20 5.46046186,20 C4.21529585,20 2.99394114,18.9611508 1.79636109,16.8834212 C0.598781043,14.8291247 0,12.8139134 0,10.837727 C0,9.00213884 0.458008016,7.5063522 1.37403779,6.3503222 C2.29006756,5.19429221 3.44599255,4.61628588 4.84184745,4.61628588 C5.43667197,4.61628588 6.15639886,4.73735477 7.00104969,4.97949619 C7.84570051,5.22163761 8.4068099,5.3427065 8.68439468,5.3427065 Z M12.4079776,0.50380785 C12.4079776,1.00371271 12.2890145,1.55047545 12.0510847,2.14411248 C11.8131549,2.7377495 11.4364383,3.28841769 10.9209237,3.79613357 C10.4767881,4.22573931 10.0366245,4.51474247 9.60041987,4.66315173 C9.32283509,4.74907288 8.90249873,4.8154655 8.33939818,4.86233158 C8.35526017,3.67505753 8.67051244,2.64792466 9.28516445,1.78090217 C9.89981646,0.913879672 10.9169511,0.320251552 12.336599,-1.13686838e-13 C12.368323,0.101543175 12.3881502,0.191368483 12.3960812,0.269478617 C12.4040122,0.347588752 12.4079776,0.425697715 12.4079776,0.50380785 Z"/>
</svg>
